<?xml version="1.0" encoding="utf-8"?>
<!-- Generator: Adobe Illustrator 22.0.1, SVG Export Plug-In . SVG Version: 6.00 Build 0)  -->
<svg version="1.1" id="Layer_1" xmlns="http://www.w3.org/2000/svg" xmlns:xlink="http://www.w3.org/1999/xlink" x="0px" y="0px"
	 viewBox="0 0 100 100" style="enable-background:new 0 0 100 100;" xml:space="preserve">
<g>
	<path d="M94.4,19.5L94.4,19.5c-0.8-1.2-1.9-1.2-2.3-1.2H24.2L23,11.1c-0.3-1.4-1.5-2.4-2.9-2.4H7.8c-1.7,0-2.9,1.3-2.9,2.9
		s1.3,2.9,2.9,2.9h9.9L24.1,53c0,0.3,0.1,0.6,0.2,0.8L26.4,67c0.3,1.4,1.5,2.3,2.9,2.3h52.6c1.7,0,2.9-1.3,2.9-2.9s-1.3-2.9-2.9-2.9
		H31.7l-1.3-7.8h53.2c0.6,0.1,1.2-0.1,1.7-0.4c0.6-0.4,1.1-1.1,1.2-1.8L94.8,22C95.1,21.2,95,20.3,94.4,19.5z"/>
	<path d="M37.2,71.9c-5.3,0-9.7,4.3-9.7,9.7s4.3,9.7,9.7,9.7s9.7-4.3,9.7-9.7S42.6,71.9,37.2,71.9z M37.2,77.7
		c2.1,0,3.7,1.7,3.7,3.8c0,2.1-1.8,3.8-3.8,3.8c-2.1,0-3.7-1.7-3.7-3.8C33.4,79.5,35.1,77.7,37.2,77.7z"/>
	<path d="M69,71.9c-5.3,0-9.7,4.3-9.7,9.7s4.3,9.7,9.7,9.7s9.7-4.3,9.7-9.7S74.4,71.9,69,71.9z M68.9,77.7c2.2,0,3.8,1.7,3.8,3.8
		c0,2.1-1.7,3.8-3.8,3.8s-3.8-1.7-3.8-3.8C65.1,79.5,66.8,77.7,68.9,77.7z"/>
</g>
</svg>
